<?xml version="1.0" encoding="utf-8"?>
<!-- Generator: Adobe Illustrator 25.2.1, SVG Export Plug-In . SVG Version: 6.00 Build 0)  -->
<svg version="1.1" id="Capa_1" xmlns="http://www.w3.org/2000/svg" xmlns:xlink="http://www.w3.org/1999/xlink" x="0px" y="0px"
	 viewBox="0 0 10.3 10.3" style="enable-background:new 0 0 10.3 10.3;" xml:space="preserve">
<g>
	<path d="M7.7,9.2L7.3,8.5c0,0,0.1-0.1,0.1-0.1L7.8,9C7.8,9.1,7.7,9.1,7.7,9.2z M2.2,8.8C2.1,8.8,2.1,8.7,2,8.7l0.5-0.6
		c0,0,0.1,0.1,0.1,0.1L2.2,8.8z M8.3,8.7L7.8,8.1L7.9,8l0.5,0.5L8.3,8.7z M1.6,8.3L1.5,8.1l0.6-0.5l0.1,0.1L1.6,8.3z M8.8,8.2
		L8.2,7.7c0,0,0.1-0.1,0.1-0.1L8.9,8C8.9,8,8.8,8.1,8.8,8.2z M1.2,7.7c0-0.1-0.1-0.1-0.1-0.2l0.7-0.4c0,0.1,0.1,0.1,0.1,0.2L1.2,7.7
		z M9.2,7.5L8.6,7.2L8.7,7l0.7,0.3L9.2,7.5z M0.8,7c0-0.1-0.1-0.1-0.1-0.2l0.7-0.3l0.1,0.2L0.8,7z M9.6,6.8L8.9,6.6l0.1-0.2l0.7,0.2
		L9.6,6.8z M0.6,6.3l0-0.2l0.7-0.2l0,0.2L0.6,6.3z M9.8,6.1L9,6c0-0.1,0-0.1,0-0.2l0.7,0.1C9.8,6,9.8,6.1,9.8,6.1z M0.4,5.6
		c0-0.1,0-0.1,0-0.2l0.7,0c0,0.1,0,0.1,0,0.2L0.4,5.6z M9.9,5.4l-0.8,0l0-0.2l0.8-0.1v0.1C9.9,5.2,9.9,5.3,9.9,5.4z M1.2,4.9
		L0.4,4.8c0-0.1,0-0.1,0-0.2l0.7,0.1L1.2,4.9z M9.1,4.7l0-0.2l0.7-0.1c0,0.1,0,0.1,0,0.2L9.1,4.7z M1.3,4.2L0.6,4l0.1-0.2L1.3,4
		L1.3,4.2z M9,4L8.9,3.8l0.7-0.2l0.1,0.2L9,4z M1.5,3.6L0.8,3.3l0.1-0.2l0.7,0.3L1.5,3.6z M8.7,3.4L8.7,3.3l0.7-0.4l0.1,0.2L8.7,3.4
		z M1.8,3L1.1,2.7c0-0.1,0.1-0.1,0.1-0.2l0.6,0.4L1.8,3z M8.4,2.9c0,0-0.1-0.1-0.1-0.1l0.6-0.5C8.9,2.3,9,2.4,9,2.4L8.4,2.9z
		 M2.2,2.5L1.6,2c0-0.1,0.1-0.1,0.1-0.2l0.5,0.5L2.2,2.5z M8,2.4L7.9,2.3l0.5-0.5c0.1,0.1,0.1,0.1,0.2,0.2L8,2.4z M2.6,2.1L2.1,1.5
		c0.1,0,0.1-0.1,0.2-0.1L2.8,2L2.6,2.1z M7.5,2c0,0-0.1-0.1-0.1-0.1l0.4-0.6c0.1,0,0.1,0.1,0.2,0.1L7.5,2z"/>
</g>
</svg>
