<?xml version="1.0" encoding="utf-8"?>
<!-- Generator: Adobe Illustrator 25.2.1, SVG Export Plug-In . SVG Version: 6.00 Build 0)  -->
<svg version="1.1" id="Capa_1" xmlns="http://www.w3.org/2000/svg" xmlns:xlink="http://www.w3.org/1999/xlink" x="0px" y="0px"
	 viewBox="0 0 33.58 31.93" style="enable-background:new 0 0 33.58 31.93;" xml:space="preserve">
<g>
	<path d="M20.76,12.2L16.79,0l-3.96,12.2H0l10.38,7.54l-3.96,12.2l10.38-7.54l10.38,7.54l-3.96-12.2l10.38-7.54H20.76z M24.91,28.82
		l-8.12-5.9l-8.12,5.9l3.1-9.54l-8.12-5.9h10.04l3.1-9.54l3.1,9.54h10.03l-8.12,5.9L24.91,28.82z"/>
	<polygon points="19.13,14.43 16.79,7.23 14.45,14.43 6.88,14.43 13.01,18.88 10.67,26.08 16.79,21.63 22.92,26.08 20.58,18.88 
		26.7,14.43 	"/>
</g>
</svg>
