<?xml version="1.0" encoding="utf-8"?>
<!-- Generator: Adobe Illustrator 25.2.1, SVG Export Plug-In . SVG Version: 6.00 Build 0)  -->
<svg version="1.1" id="Capa_1" xmlns="http://www.w3.org/2000/svg" xmlns:xlink="http://www.w3.org/1999/xlink" x="0px" y="0px"
	 viewBox="0 0 36.6 36.6" style="enable-background:new 0 0 36.6 36.6;" xml:space="preserve">
<g>
	<path d="M31.4,5.4C27.9,1.9,23.3,0,18.3,0C8.2,0,0,8.2,0,18.3s8.2,18.3,18.3,18.3c10.1,0,18.3-8.2,18.3-18.3
		C36.6,13.5,34.8,8.9,31.4,5.4z M33.6,18.3c0,8.5-6.9,15.4-15.3,15.4S3,26.8,3,18.3C3,9.9,9.9,3,18.3,3S33.6,9.9,33.6,18.3z"/>
	<polygon points="19.8,8.3 16.8,8.3 16.8,16.8 8.3,16.8 8.3,19.8 16.8,19.8 16.8,28.4 19.8,28.4 19.8,19.8 28.4,19.8 28.4,16.8 
		19.8,16.8 	"/>
</g>
</svg>
