<?xml version="1.0" encoding="utf-8"?>
<!-- Generator: Adobe Illustrator 25.2.1, SVG Export Plug-In . SVG Version: 6.00 Build 0)  -->
<svg version="1.1" id="Capa_1" xmlns="http://www.w3.org/2000/svg" xmlns:xlink="http://www.w3.org/1999/xlink" x="0px" y="0px"
	 viewBox="0 0 33.7 44.4" style="enable-background:new 0 0 33.7 44.4;" xml:space="preserve">
<style type="text/css">
	.st0{fill:#1D1D1B;}
</style>
<g>
	<path class="st0" d="M33.7,3.9H22.1V0H11.6v3.9H0v7.2h2.1l2.1,33.3h25.6l2.1-33.3h1.8V3.9z M14.2,2.5h5.4v1.4h-5.4V2.5z M2.5,6.4
		h9.1h10.4h9.1v2.2H2.5V6.4z M27.5,41.9H6.6L4.7,11.2h24.7L27.5,41.9z"/>
	<rect x="15.6" y="14.7" class="st0" width="2.5" height="24.4"/>
	
		<rect x="8.7" y="14.7" transform="matrix(0.9985 -5.563255e-02 5.563255e-02 0.9985 -1.4789 0.5943)" class="st0" width="2.5" height="24.4"/>
	
		<rect x="11.6" y="25.6" transform="matrix(5.561125e-02 -0.9985 0.9985 5.561125e-02 -4.352 49.1178)" class="st0" width="24.4" height="2.5"/>
</g>
</svg>
